<svg width="58" height="53" viewBox="0 0 58 53" fill="none" xmlns="http://www.w3.org/2000/svg">
<path d="M56.2075 51.5184C55.1828 52.4671 53.7932 53 52.3442 53C50.8953 53 49.5057 52.4671 48.481 51.5184L29.1592 33.6248L9.83744 51.5184C8.80686 52.4402 7.42657 52.9502 5.99385 52.9387C4.56112 52.9272 3.19061 52.395 2.17748 51.4567C1.16436 50.5185 0.589684 49.2493 0.577232 47.9225C0.564781 46.5957 1.11555 45.3174 2.11092 44.363L21.4327 26.4695L2.11092 8.57592C1.11555 7.62152 0.564781 6.34325 0.577232 5.01643C0.589684 3.68962 1.16436 2.42041 2.17748 1.48217C3.19061 0.54393 4.56112 0.0117378 5.99385 0.000205994C7.42657 -0.011322 8.80686 0.498737 9.83744 1.42053L29.1592 19.3141L48.481 1.42053C49.5116 0.498737 50.8919 -0.011322 52.3246 0.000205994C53.7573 0.0117378 55.1278 0.54393 56.1409 1.48217C57.1541 2.42041 57.7287 3.68962 57.7412 5.01643C57.7536 6.34325 57.2029 7.62152 56.2075 8.57592L36.8857 26.4695L56.2075 44.363C57.2319 45.312 57.8074 46.5989 57.8074 47.9407C57.8074 49.2825 57.2319 50.5694 56.2075 51.5184Z" fill="white"/>
</svg>
