<svg width="29" height="31" viewBox="0 0 29 31" fill="none" xmlns="http://www.w3.org/2000/svg">
<path fill-rule="evenodd" clip-rule="evenodd" d="M8.52205 0.093C10.0683 0.0169091 10.5613 0 14.5 0C18.4387 0 18.9317 0.0183182 20.4766 0.093C22.0215 0.167682 23.0761 0.431182 23.9988 0.813046C24.965 1.20336 25.8416 1.8135 26.5666 2.60259C27.3048 3.37618 27.8743 4.31182 28.2381 5.34609C28.5966 6.33245 28.8418 7.45973 28.913 9.10836C28.9842 10.764 29 11.291 29 15.5C29 19.7104 28.9829 20.2374 28.913 21.8902C28.8431 23.5389 28.5966 24.6661 28.2381 25.6525C27.8743 26.6869 27.3039 27.6241 26.5666 28.3988C25.8416 29.1879 24.965 29.7966 23.9988 30.1855C23.0761 30.5688 22.0215 30.8309 20.4793 30.907C18.9317 30.9831 18.4387 31 14.5 31C10.5613 31 10.0683 30.9817 8.52205 30.907C6.97977 30.8323 5.92523 30.5688 5.0025 30.1855C4.03485 29.7966 3.15813 29.1869 2.43336 28.3988C1.69568 27.6248 1.12482 26.688 0.760591 25.6539C0.403364 24.6675 0.158182 23.5403 0.087 21.8916C0.0158182 20.236 0 19.709 0 15.5C0 11.2896 0.0171363 10.7626 0.087 9.11118C0.156864 7.45973 0.403364 6.33245 0.760591 5.34609C1.12536 4.31193 1.69666 3.37521 2.43468 2.60118C3.15842 1.8128 4.03426 1.20258 5.00118 0.813046C5.92391 0.431182 6.97845 0.169091 8.52073 0.093H8.52205ZM20.3593 2.883C18.8302 2.80832 18.3715 2.79282 14.5 2.79282C10.6285 2.79282 10.1698 2.80832 8.64068 2.883C7.22627 2.95205 6.45909 3.20427 5.94764 3.41705C5.27141 3.69886 4.78764 4.03282 4.28014 4.57532C3.79906 5.07562 3.42883 5.68467 3.19659 6.35782C2.99755 6.90455 2.76159 7.72464 2.697 9.23659C2.62714 10.8711 2.61264 11.3615 2.61264 15.5C2.61264 19.6385 2.62714 20.1289 2.697 21.7634C2.76159 23.2754 2.99755 24.0955 3.19659 24.6422C3.42859 25.3143 3.799 25.9245 4.28014 26.4247C4.74809 26.939 5.31886 27.335 5.94764 27.583C6.45909 27.7957 7.22627 28.048 8.64068 28.117C10.1698 28.1917 10.6272 28.2072 14.5 28.2072C18.3728 28.2072 18.8302 28.1917 20.3593 28.117C21.7737 28.048 22.5409 27.7957 23.0524 27.583C23.7286 27.3011 24.2124 26.9672 24.7199 26.4247C25.201 25.9245 25.5714 25.3143 25.8034 24.6422C26.0025 24.0955 26.2384 23.2754 26.303 21.7634C26.3729 20.1289 26.3874 19.6385 26.3874 15.5C26.3874 11.3615 26.3729 10.8711 26.303 9.23659C26.2384 7.72464 26.0025 6.90455 25.8034 6.35782C25.5398 5.63495 25.2274 5.11782 24.7199 4.57532C24.2518 4.0611 23.6821 3.66534 23.0524 3.41705C22.5409 3.20427 21.7737 2.95205 20.3593 2.883ZM12.648 20.2782C13.6823 20.7385 14.834 20.8006 15.9064 20.454C16.9788 20.1073 17.9054 19.3735 18.5278 18.3777C19.1503 17.3819 19.4301 16.186 19.3193 14.9943C19.2086 13.8025 18.7142 12.6888 17.9207 11.8434C17.4148 11.303 16.8031 10.8892 16.1297 10.6318C15.4563 10.3744 14.7378 10.2798 14.0261 10.3549C13.3144 10.4299 12.6271 10.6727 12.0136 11.0658C11.4002 11.4588 10.876 11.9924 10.4786 12.6281C10.0813 13.2637 9.8207 13.9856 9.71568 14.7419C9.61066 15.4981 9.66379 16.2698 9.87126 17.0014C10.0787 17.733 10.4354 18.4064 10.9155 18.973C11.3956 19.5396 11.9873 19.9854 12.648 20.2782ZM9.22991 9.86645C9.92199 9.12665 10.7436 8.5398 11.6478 8.13942C12.5521 7.73904 13.5213 7.53296 14.5 7.53296C15.4787 7.53296 16.4479 7.73904 17.3522 8.13942C18.2564 8.5398 19.078 9.12665 19.7701 9.86645C20.4622 10.6063 21.0112 11.4845 21.3857 12.4511C21.7603 13.4178 21.953 14.4538 21.953 15.5C21.953 16.5462 21.7603 17.5822 21.3857 18.5489C21.0112 19.5155 20.4622 20.3937 19.7701 21.1335C18.3724 22.6277 16.4767 23.467 14.5 23.467C12.5233 23.467 10.6276 22.6277 9.22991 21.1335C7.83219 19.6394 7.04697 17.613 7.04697 15.5C7.04697 13.387 7.83219 11.3606 9.22991 9.86645ZM23.606 8.71945C23.7775 8.54652 23.9148 8.33855 24.0098 8.10787C24.1047 7.87719 24.1554 7.62849 24.1589 7.37649C24.1623 7.12449 24.1184 6.87432 24.0298 6.64078C23.9411 6.40724 23.8096 6.19508 23.6429 6.01687C23.4761 5.83866 23.2777 5.69802 23.0592 5.60327C22.8407 5.50853 22.6067 5.4616 22.371 5.46528C22.1352 5.46895 21.9026 5.52315 21.6868 5.62466C21.471 5.72618 21.2764 5.87294 21.1146 6.05627C20.8 6.41281 20.6277 6.8864 20.6344 7.37649C20.6411 7.86659 20.8262 8.3346 21.1504 8.68119C21.4747 9.02777 21.9125 9.22564 22.371 9.23278C22.8294 9.23993 23.2725 9.05579 23.606 8.71945Z" fill="#39393A"/>
</svg>
