<svg width="45" height="42" viewBox="0 0 45 42" fill="none" xmlns="http://www.w3.org/2000/svg">
<path fill-rule="evenodd" clip-rule="evenodd" d="M13.7249 0.126C16.0855 0.0229091 16.8381 0 22.8511 0C28.8641 0 29.6168 0.0248182 31.9753 0.126C34.3338 0.227182 35.9437 0.584182 37.3524 1.10155C38.8275 1.63036 40.1657 2.457 41.2725 3.52609C42.3994 4.57418 43.2688 5.84182 43.8242 7.24309C44.3716 8.57945 44.7459 10.1067 44.8546 12.3404C44.9632 14.5835 44.9874 15.2975 44.9874 21C44.9874 26.7044 44.9612 27.4184 44.8546 29.6577C44.7479 31.8914 44.3716 33.4186 43.8242 34.755C43.2688 36.1565 42.398 37.4262 41.2725 38.4758C40.1657 39.5449 38.8275 40.3696 37.3524 40.8965C35.9437 41.4158 34.3338 41.7709 31.9793 41.874C29.6168 41.9771 28.8641 42 22.8511 42C16.8381 42 16.0855 41.9752 13.7249 41.874C11.3704 41.7728 9.76053 41.4158 8.35186 40.8965C6.8746 40.3696 5.53616 39.5435 4.42971 38.4758C3.30354 37.4271 2.43204 36.158 1.87599 34.7569C1.33063 33.4205 0.95633 31.8933 0.847661 29.6596C0.738992 27.4165 0.714844 26.7025 0.714844 21C0.714844 15.2956 0.741005 14.5816 0.847661 12.3442C0.954318 10.1067 1.33063 8.57945 1.87599 7.24309C2.43287 5.84197 3.30503 4.57287 4.43172 3.52418C5.53661 2.45605 6.8737 1.6293 8.34984 1.10155C9.75852 0.584182 11.3684 0.229091 13.7229 0.126H13.7249ZM31.7962 3.906C29.4618 3.80482 28.7615 3.78382 22.8511 3.78382C16.9407 3.78382 16.2404 3.80482 13.906 3.906C11.7468 3.99955 10.5755 4.34127 9.79474 4.62955C8.76238 5.01136 8.02384 5.46382 7.24907 6.19882C6.51464 6.87664 5.94943 7.70181 5.59488 8.61382C5.29101 9.35455 4.9308 10.4656 4.83219 12.5141C4.72553 14.7286 4.7034 15.393 4.7034 21C4.7034 26.607 4.72553 27.2714 4.83219 29.4859C4.9308 31.5344 5.29101 32.6455 5.59488 33.3862C5.94907 34.2968 6.51455 35.1235 7.24907 35.8012C7.96347 36.498 8.83483 37.0345 9.79474 37.3705C10.5755 37.6587 11.7468 38.0005 13.906 38.094C16.2404 38.1952 16.9387 38.2162 22.8511 38.2162C28.7635 38.2162 29.4618 38.1952 31.7962 38.094C33.9555 38.0005 35.1267 37.6587 35.9075 37.3705C36.9398 36.9886 37.6784 36.5362 38.4532 35.8012C39.1877 35.1235 39.7532 34.2968 40.1073 33.3862C40.4112 32.6455 40.7714 31.5344 40.87 29.4859C40.9767 27.2714 40.9988 26.607 40.9988 21C40.9988 15.393 40.9767 14.7286 40.87 12.5141C40.7714 10.4656 40.4112 9.35455 40.1073 8.61382C39.7049 7.63445 39.2279 6.93382 38.4532 6.19882C37.7386 5.50214 36.8688 4.96595 35.9075 4.62955C35.1267 4.34127 33.9555 3.99955 31.7962 3.906ZM20.0237 27.4737C21.6027 28.0973 23.361 28.1815 24.9982 27.7118C26.6354 27.2422 28.0499 26.2479 29.0002 24.8988C29.9505 23.5497 30.3776 21.9295 30.2085 20.3148C30.0394 18.7002 29.2847 17.1913 28.0733 16.0459C27.301 15.3137 26.3672 14.7531 25.3391 14.4044C24.311 14.0556 23.2142 13.9275 22.1276 14.0292C21.0411 14.1308 19.9918 14.4598 19.0554 14.9923C18.1189 15.5249 17.3185 16.2478 16.7119 17.109C16.1053 17.9702 15.7075 18.9483 15.5472 19.9728C15.3868 20.9974 15.468 22.0429 15.7847 23.0342C16.1014 24.0254 16.6459 24.9377 17.3789 25.7054C18.1119 26.473 19.0151 27.077 20.0237 27.4737ZM14.8056 13.3675C15.8621 12.3651 17.1164 11.5701 18.4969 11.0276C19.8774 10.4851 21.3569 10.2059 22.8511 10.2059C24.3453 10.2059 25.8249 10.4851 27.2053 11.0276C28.5858 11.5701 29.8401 12.3651 30.8966 13.3675C31.9532 14.3698 32.7913 15.5597 33.3631 16.8693C33.9349 18.1789 34.2292 19.5825 34.2292 21C34.2292 22.4175 33.9349 23.8211 33.3631 25.1307C32.7913 26.4403 31.9532 27.6302 30.8966 28.6325C28.7628 30.6568 25.8688 31.794 22.8511 31.794C19.8335 31.794 16.9394 30.6568 14.8056 28.6325C12.6718 26.6083 11.473 23.8628 11.473 21C11.473 18.1372 12.6718 15.3917 14.8056 13.3675ZM36.7527 11.8135C37.0145 11.5792 37.2241 11.2974 37.3691 10.9849C37.5141 10.6723 37.5915 10.3354 37.5967 9.99396C37.602 9.65254 37.535 9.31359 37.3996 8.99718C37.2643 8.68077 37.0635 8.39334 36.809 8.15189C36.5544 7.91045 36.2515 7.7199 35.9179 7.59153C35.5844 7.46317 35.2271 7.39959 34.8672 7.40457C34.5073 7.40954 34.1521 7.48298 33.8227 7.62051C33.4933 7.75805 33.1963 7.95689 32.9493 8.20527C32.4689 8.68833 32.206 9.32996 32.2162 9.99396C32.2264 10.658 32.509 11.292 33.0039 11.7616C33.4989 12.2312 34.1673 12.4993 34.8672 12.5089C35.5671 12.5186 36.2435 12.2691 36.7527 11.8135Z" fill="white"/>
</svg>
