<svg width="65" height="46" viewBox="0 0 65 46" fill="none" xmlns="http://www.w3.org/2000/svg">
<path d="M3.43056 26.8334L61.5694 26.8334C63.4641 26.8334 65 25.2029 65 23.1917V22.8084C65 20.7971 63.4641 19.1667 61.5694 19.1667L3.43056 19.1667C1.53592 19.1667 0 20.7971 0 22.8084V23.1917C0 25.2029 1.53592 26.8334 3.43056 26.8334Z" fill="#39393A"/>
<path d="M3.43056 7.66663L61.5694 7.66663C63.4641 7.66663 65 6.03619 65 4.02496V3.64163C65 1.63039 63.4641 -4.1008e-05 61.5694 -4.1008e-05L3.43056 -4.1008e-05C1.53592 -4.1008e-05 0 1.63039 0 3.64163V4.02496C0 6.03619 1.53592 7.66663 3.43056 7.66663Z" fill="#39393A"/>
<path d="M3.43056 46L61.5694 46C63.4641 46 65 44.3696 65 42.3583V41.975C65 39.9638 63.4641 38.3333 61.5694 38.3333L3.43056 38.3333C1.53592 38.3333 0 39.9638 0 41.975V42.3583C0 44.3696 1.53592 46 3.43056 46Z" fill="#39393A"/>
</svg>
