<svg width="46" height="42" viewBox="0 0 46 42" fill="none" xmlns="http://www.w3.org/2000/svg">
<path d="M42.4987 0.00430034C41.9386 0.0463129 41.3889 0.181786 40.8709 0.405434H40.8639C40.3667 0.6087 38.0026 1.63402 34.4084 3.18819L21.5289 8.78069C12.2871 12.792 3.20235 16.7422 3.20235 16.7422L3.31052 16.6991C3.31052 16.6991 2.68416 16.9113 2.02989 17.3736C1.62569 17.6388 1.27787 17.9858 1.00749 18.3935C0.686457 18.8792 0.428238 19.6221 0.524198 20.3902C0.681223 21.6889 1.49775 22.4678 2.08398 22.8977C2.67719 23.3331 3.24248 23.5363 3.24248 23.5363H3.25643L11.7759 26.4954C12.158 27.7599 14.3721 35.2646 14.9042 36.9932C15.2182 38.0257 15.5236 38.6715 15.9057 39.1644C16.0906 39.4162 16.307 39.6267 16.5669 39.7958C16.7021 39.8768 16.8462 39.9408 16.9961 39.9864L16.9089 39.9649C16.9351 39.972 16.956 39.9936 16.9752 40.0008C17.045 40.0206 17.0921 40.0278 17.1811 40.0422C18.5297 40.4631 19.6132 39.5997 19.6132 39.5997L19.6743 39.5493L24.7043 34.8275L33.1348 41.4956L33.3267 41.5802C35.0837 42.3753 36.8633 41.9328 37.8037 41.1521C38.7511 40.366 39.1192 39.3605 39.1192 39.3605L39.1803 39.1986L45.6951 4.78913C45.88 3.9401 45.9271 3.14502 45.723 2.37333C45.5124 1.59233 45.0264 0.920627 44.3603 0.489978C43.801 0.139418 43.1525 -0.0297897 42.4987 0.00430034ZM42.3225 3.69186C42.3155 3.80518 42.3365 3.79259 42.2876 4.01025V4.03004L35.8339 38.0815C35.806 38.1301 35.7589 38.2362 35.6298 38.3423C35.4937 38.4539 35.3855 38.524 34.8185 38.292L24.5072 30.1416L18.2785 35.9949L19.587 27.3786L36.4341 11.1893C37.1285 10.5237 36.8964 10.3834 36.8964 10.3834C36.9453 9.56677 35.8478 10.1442 35.8478 10.1442L14.6041 23.7126L14.5971 23.6766L4.41493 20.142V20.1348L4.38876 20.1294C4.40661 20.1233 4.42409 20.1161 4.4411 20.1078L4.49693 20.079L4.55102 20.0592C4.55102 20.0592 13.6428 16.109 22.8846 12.0977C27.5116 10.0884 32.1735 8.06477 35.7589 6.5034C39.3443 4.95103 41.9945 3.81238 42.1445 3.75122C42.2876 3.69366 42.2196 3.69366 42.3225 3.69366V3.69186Z" fill="white"/>
</svg>
